<svg data-name="Layer 1" xmlns="http://www.w3.org/2000/svg" viewBox="0 0 540.94 626.36"><path d="M491 415.88C451.3 525.94 348.42 629.31 235 626.3S-2.52 513.91 0 437.83s132-118.54 233.66-174.06 176-123.82 224.85-99.48S530.76 305.71 491 415.88z" fill="#f7f7f7"></path><path d="M145.67 397.82a7.49 7.49 0 0 1-.72-4 6.91 6.91 0 0 1 1.86-3.26c3.67-4.09 8.71-6.65 13.07-10s8.34-8.07 8.27-13.56c-.13-10.29-14.54-22.83-20.86-30.25-10.51-12.37-20.75-25.19-31.71-37.09-2.81-3.05-5.52-6.46-6.35-10.52-2.81-13.82 18.81-14 27.18-16.22 9.56-2.51 16.25-8 15-18.39-3.11-25.75-23.72-55.37 6.54-72.6 7.83-4.46 18.21-10 27.52-9.27 15.53 1.22 9.74 21.52 8.92 32-.56 7.11-.41 15.58 3.57 21.81 5.92 9.26 16.53 13.86 22.29 23.84 9.72 16.86 9.12 37.09 0 54-4.32 8-12.58 15.21-13.61 24.65-1.22 11.23 11.46 23.14 16.66 32.24 14.61 25.57-3.63 49.67-16 71.93-1.31 2.36-2.74 4.83-5.09 6.16-4.46 2.52-10-.06-14.4-2.62-16.91-9.73-34.94-20.74-42.14-38.85z" fill="#def4e8"></path><path d="M25.48 375c-5.45-.17-16-.65-18.57-6.73-.89-2.07-.48-4.46.2-6.61C12 346.1 31.06 337 46.59 338.81c4 .45 7.85 1.54 11.83 1.9 10.4.94 14.52-10 24-10.81 12.79-1.07 22.07 11.78 25.92 22.24 3.33 9.08 4.88 18.86 9.47 27.37 11.19 20.77 42.88 1.58 51.66 28.69 2.89 8.94 11.23 31.27 3.1 39.15-3.65 3.53-11.39 3.81-16.17 5a109.06 109.06 0 0 1-15.55 3c-6.77.72-18.56 1.26-19.45-8-.78-8.14 6.05-18.87-.9-25.44-13.06-12.35-41.29-10.08-57.82-11.66-3.86-.37-9.18-1.71-12.36-3.94-7.17-5 .34-8.06 5.6-11.25 4.8-2.91 9.72-7.6 6.27-13.39-5.51-9.25-19.05-7.42-28.07-6.84-1.99.17-5.12.3-8.64.17z" fill="#d4e9cd"></path><path fill="none" stroke="#34345b" stroke-linecap="round" stroke-linejoin="round" d="M174.25 264.5l25.29 199.27M155.85 394.53c3.92-.36 7.57 2.24 9.92 5.4 4 5.42 4.8 12 6 18.43l4.26 22.9M68.2 368.6c17.89 10.79 35.62 21.88 52.49 34.22 23.51 17.19 45.53 37.08 57.45 64.24M146.89 237.68c2.19 7.09 3.92 15 3 22.48a13.52 13.52 0 0 1-1.79 5.84c-2.6 4-7.71 5.1-12 6.28-5.86 1.62-11.75 3.13-17.62 4.7-3.39.9-7.15 2.1-8.76 5.21-3.67 7.06 4.25 16.18 8.66 20.82 11.13 11.72 24.37 19.61 32.64 34"></path><path d="M134.32 461.85c0 51.3 8.37 78.18 52.57 78.18s52.57-26.88 52.57-78.18z" fill="#fff" stroke="#34345d" stroke-miterlimit="10"></path><path d="M275.66 388.17c4.33 7 14.63 27 25.62 50.27q9.62 20.41 24.66 70l-12.77 5.83Q277.9 457.51 261 427.08c.9 7.88 1.82 16.71 2.67 26 2.06 22.47 0 71-1.11 85-.7 8.81-12.67 7-13.79 0s-22.53-117.56-22.56-141c0-7.84 15.31-14.88 24.44-9.4 6.35-6.68 18.19-10.57 25.01.49z" fill="#fff" stroke="#34345d" stroke-miterlimit="10"></path><path d="M296.74 500.32c-2.42-6.62-43.75-78.6-51.88-100.84-3.58-9.79 25.85-30.11 36.35-13.23L325 490z" fill="#34345d"></path><path d="M327.33 501.75a2.22 2.22 0 0 0-3.09.52 17.89 17.89 0 0 1-4.91 5.14q-2.63 1.52-8 2l-3.88-3a1.11 1.11 0 0 0-1.55.25l-18.69 25.75q-2.75 2.18-7 5.37t1.91 8.94l54.14-31.26a55.62 55.62 0 0 0-3.51-8.08 23.8 23.8 0 0 0-5.33-5.51z" fill="#fff" stroke="#34345d" stroke-miterlimit="10" data-name="Accessories/Shoe/Flat-Sneaker"></path><path d="M237.38 385c26-4.85 95.88-18.95 109.28-20.38h65.83c-1.12 38.82-14.86 59.77-48.09 59.77-23 0-99.88-8.66-101.8-7.67q-1.92 1 4.69 92.93H237.2c0-6.48-14-75.18-14-104.62-.01-8.1 3.06-17.92 14.18-20.03z" fill="#ffabad"></path><g data-name="Accessories/Shoe/Flat-Sneaker"><path data-name="shoe" d="M265.35 532.33a2.22 2.22 0 0 0-2.94-1.09 17.89 17.89 0 0 1-6.82 2q-3 0-7.9-2.27l-1.87-4.53a1.11 1.11 0 0 0-1.46-.56l-29.06 13q-3.47.52-8.72 1.16t-2.81 8.7h62.52a55.62 55.62 0 0 0 1-8.75 23.8 23.8 0 0 0-1.86-7.43z" fill="#fff" stroke="#34345d" stroke-miterlimit="10"></path></g><path data-name="Leg-and-Butt" d="M411.69 379.5c-3.83 30-18 46.06-47.07 46.06-23 0-56.87-5.19-58.79-4.2" fill="none" stroke="#3f3f44" stroke-miterlimit="10"></path><path fill="#313759" d="M190.71 314.79l7.96-5.08 54.87-8.17 31.32 62.08 44.46-6.62 1.63 10.93-105.18 15.66-.46-3.05-34.6-65.75z"></path><path fill="#ebe4d6" d="M200.47 311.91l52.34-7.79 5.07 9.98-51.96 7.73-5.45-9.92z"></path><path fill="#fff" d="M206.76 323.96l52.09-7.76 24.18 47.69-51.36 9.07-24.91-49z"></path><path fill="none" stroke="#33365b" stroke-miterlimit="10" d="M221.36 330.39l33.43-4.98M225.76 338.61l32.92-4.9M230.56 346.77l21.76-3.24"></path><circle cx="208.99" cy="315.81" r="1.44" transform="rotate(-50.29 208.979 315.8)" fill="#33365b"></circle><circle cx="220.4" cy="314.11" r="1.44" transform="rotate(-50.29 220.381 314.107)" fill="#33365b"></circle><circle cx="214.85" cy="315.14" r="1.44" transform="rotate(-8.47 214.77 315.038)" fill="#33365b"></circle><path d="M385.88 236.13h-26.6l4.51-31.87c-7.18 4.33-14.23 6.42-17.54 5.56-8.3-2.14-9.06-32.51-2.64-44.48s39.44-17.19 41.11 6.53c.58 8.23-2.88 15.58-8 21.58z" fill="#fff" stroke="#34345d" stroke-miterlimit="10"></path><path d="M375.32 198.79l-1.6-12.25q2.5-8-2.09-10.07t-9.31 5.75h-3.24q-1.47-6.59-4.88-7.86c-7.17-2.66-12.36-1.11-16.66-1.11-4.67-16.21 6.15-23.57 23.88-25.54q17.73-2 21 11.2 6.29 1.62 7.74 8.26c1.45 6.64-8.06 16.77-11.4 31.62z" fill="#34345d"></path><path fill="#fff" stroke="#34345d" stroke-miterlimit="10" d="M464.58 548.66H337.11l11.22-137.45h85.63l30.62 137.45z"></path><path data-name="Seat-Stuff" fill="#36345b" d="M464.58 548.66h-72.72l15.77-137.45h26.33l30.62 137.45z"></path><path d="M347.53 345.65l-35 14.52q-14.85 17.45-16.61 14.55c-1.76-2.9 2.06-5.47 1.19-7.62s-7.52-1.92-13.82-1.44-4.47-2.32-2.95-3.7q9.65-5.78 24-9.66l35.36-26z" fill="#fff" stroke="#34345d" stroke-miterlimit="10"></path><path d="M400.84 264.57c-1.76 14.28 5.08 31.82 2.15 40.33-11.68 33.92-35.47 44-80.54 60.78l-15.28-17.23c40.37-28.61 68.21-56.13 87.46-92z" fill="#e2b771"></path><path d="M297.64 354.19q-12.67 4.66-20.11 11c-9.49 8.08-14.32 10.68-23.8 11.37-5.07.37-13.23-1.92-13.73-5.86-.34-2.66 13.44-7.51 16.95-10.94s-8.42-6.15-6-7.59q2.84-4.05 16 .56l17.15-8.82z" fill="#fff" stroke="#34345d" stroke-miterlimit="10"></path><path d="M357.51 221.83h30.76c3.37 0 26.3 43.94 26.32 72.49 0 26.07 24.28 42.63 11.73 83.37-20-3.94-79.61 16.09-89.79-5.54-4.95-10.52-6.5-20.25-5.85-32.35-18.23 11.68-20.45 12.67-43.82 23.53-3.61-1.4-12.21-5.78-20.43-25.71 43.09-21.17 61.2-45 77.91-59.77 7-23.74 11.47-34.22 13.17-56.02z" fill="#ffcf77"></path><circle cx="245.25" cy="79.75" r="23.13" fill="#feec97"></circle><path fill="#fff" stroke="#34345d" stroke-miterlimit="10" d="M251.72 114.7l7.7 14.71M244.47 115.62l.85 27.15M236.52 114.71l-5.55 14.44"></path><path d="M244.9 25.13a63 63 0 0 0-63 63h126a63 63 0 0 0-63-63z" fill="#34345d" stroke="#fff" stroke-miterlimit="10"></path><path fill="none" stroke="#34345d" stroke-miterlimit="10" stroke-width="3" d="M244.9 25.13V0"></path><circle cx="467.08" cy="66.19" r="18.5" fill="none" stroke="#89dfc4" stroke-miterlimit="10"></circle><path fill="none" stroke="#d885a6" stroke-miterlimit="10" d="M41.336 58.013l27.93 27.93-27.93 27.931-27.93-27.93z"></path><path fill="#93ddcb" d="M513.513 469.608l14.071 14.072-14.071 14.071-14.071-14.071z"></path><path fill="#ededed" d="M75.195 122.468l5.21 19.206-19.205 5.21-5.21-19.205z"></path><circle cx="536.01" cy="317.4" r="4.43" fill="none" stroke="#d885a6" stroke-miterlimit="10"></circle></svg>